<?xml version="1.0" standalone="no"?>
<!DOCTYPE svg PUBLIC "-//W3C//DTD SVG 20010904//EN"
 "http://www.w3.org/TR/2001/REC-SVG-20010904/DTD/svg10.dtd">
<svg version="1.0" xmlns="http://www.w3.org/2000/svg"
 width="280.000000pt" height="280.000000pt" viewBox="0 0 280.000000 280.000000"
 preserveAspectRatio="xMidYMid meet">
<metadata>
Created by potrace 1.14, written by Peter Selinger 2001-2017
</metadata>
<g transform="translate(0.000000,280.000000) scale(0.100000,-0.100000)"
fill="#000000" stroke="none">
<path d="M170 2753 c0 -27 3 -105 7 -175 l6 -128 39 0 38 0 0 -220 0 -220 -40
0 -40 0 0 -130 0 -130 -45 0 -45 0 0 -350 0 -350 45 0 45 0 0 -130 0 -130 40
0 40 0 0 -45 0 -45 45 0 45 0 0 -85 0 -85 45 0 45 0 0 -45 0 -45 45 0 45 0 0
-45 0 -45 85 0 85 0 0 -45 0 -45 45 0 45 0 0 -40 0 -40 130 0 130 0 0 -45 0
-45 350 0 350 0 0 45 0 45 130 0 130 0 0 40 0 40 45 0 45 0 0 45 0 45 90 0 90
0 0 45 0 45 40 0 40 0 0 45 0 45 45 0 45 0 0 85 0 85 45 0 45 0 0 45 0 45 45
0 45 0 0 130 0 130 40 0 40 0 0 350 0 350 -40 0 -40 0 0 130 0 130 -45 0 -45
0 0 220 0 220 45 0 45 0 0 175 0 175 -265 0 -265 0 0 -45 0 -45 -85 0 -85 0 0
-40 0 -40 -90 0 -90 0 0 40 0 40 -350 0 -350 0 0 -40 0 -40 -90 0 -90 0 0 40
0 40 -85 0 -85 0 0 45 0 45 -265 0 -265 0 0 -47z"/>
</g>
</svg>
