<?xml version="1.0" encoding="utf-8"?>
<!-- Generator: Adobe Illustrator 15.1.0, SVG Export Plug-In . SVG Version: 6.00 Build 0)  -->
<!DOCTYPE svg PUBLIC "-//W3C//DTD SVG 1.1//EN" "http://www.w3.org/Graphics/SVG/1.1/DTD/svg11.dtd">
<svg version="1.1" id="Layer_1"
	xmlns="http://www.w3.org/2000/svg"
	xmlns:xlink="http://www.w3.org/1999/xlink" x="0px" y="0px" width="1278px" height="411px" viewBox="0 0 1278 411" enable-background="new 0 0 1278 411" xml:space="preserve">
	<g>
		<path d="M187,258.951v-94.552h78.793v47.276h-15.758v-31.517h-47.276v31.517h47.276v15.759h-47.276v31.517H187z M250.034,258.951
		v-31.517h15.758v31.517H250.034z"/>
		<path d="M313.068,258.951v-15.759h-31.517v-63.034h15.759v47.276h47.276v-47.276h15.758v63.034h-31.517v15.759H313.068z"/>
		<path d="M376.103,258.951v-78.793h78.793v78.793h-15.758v-15.759h-47.276v15.759H376.103z M439.138,227.434v-31.518h-47.276v31.518
		H439.138z"/>
		<path d="M470.655,258.951v-78.793h78.793v78.793h-15.758v-63.035h-47.276v63.035H470.655z"/>
	</g>
	<g>
		<path d="M596.724,258.951v-78.793h78.793v78.793h-15.759v-15.759h-47.275v15.759H596.724z M659.758,227.434v-31.518h-47.275v31.518
		H659.758z"/>
		<path d="M691.275,258.951v-78.793h78.793v78.793H754.31v-63.035h-47.276v63.035H691.275z"/>
		<path d="M785.828,258.951v-78.793h63.034v15.758h-47.275v47.276h47.275v15.759H785.828z M848.862,243.192v-47.276h15.759v47.276
		H848.862z"/>
	</g>
	<g>
		<path d="M911.896,258.951v-94.552h15.759v78.793h63.034v15.759H911.896z"/>
		<path d="M1006.448,258.951v-78.793h78.793v78.793H1006.448z M1069.482,243.192v-47.276h-47.275v47.276H1069.482z"/>
	</g>
	<g>
		<g>
			<rect x="141" y="131.5" width="14" height="151.5"/>
		</g>
		<g>
			<rect x="154.995" y="117.5" width="960" height="14"/>
		</g>
		<g>
			<rect x="154.995" y="283.5" width="960" height="13.999"/>
		</g>
		<g>
			<rect x="1114.995" y="131.5" width="14" height="151.5"/>
		</g>
	</g>
</svg>
