<?xml version="1.0" encoding="utf-8"?>
<svg version="1.1" id="base" x="0px" y="0px" width="987.995px" height="180px" viewBox="0 0 987.995 180" enable-background="new 0 0 987.995 180" xml:space="preserve">
	<g class="logo-word">
		<path d="M46,141.451V46.899h78.793v47.276h-15.758V62.658H61.758v31.517h47.276v15.759H61.758v31.517H46z M109.034,141.451v-31.517
		h15.758v31.517H109.034z"/>
		<path d="M172.068,141.451v-15.759h-31.517V62.658h15.759v47.276h47.276V62.658h15.758v63.034h-31.517v15.759H172.068z"/>
		<path d="M235.103,141.451V62.658h78.793v78.793h-15.758v-15.759h-47.276v15.759H235.103z M298.138,109.934V78.417h-47.276v31.518
		H298.138z"/>
		<path d="M329.655,141.451V62.658h78.793v78.793h-15.758V78.417h-47.276v63.035H329.655z"/>
	</g>
	<g class="logo-word">
		<path d="M455.724,141.451V62.658h78.793v78.793h-15.759v-15.759h-47.275v15.759H455.724z M518.758,109.934V78.417h-47.275v31.518
		H518.758z"/>
		<path d="M550.275,141.451V62.658h78.793v78.793H613.31V78.417h-47.276v63.035H550.275z"/>
		<path d="M644.828,141.451V62.658h63.034v15.758h-47.275v47.276h47.275v15.759H644.828z M707.862,125.692V78.417h15.759v47.276
		H707.862z"/>
	</g>
	<g class="logo-word">
		<path d="M770.896,141.451V46.899h15.759v78.793h63.034v15.759H770.896z"/>
		<path d="M865.448,141.451V62.658h78.793v78.793H865.448z M928.482,125.692V78.417h-47.275v47.276H928.482z"/>
	</g>
	<g id="box" class="logo-box">
		<g class="logo-rect">
			<rect y="14.001" width="14" height="151.5"/>
		</g>
		<g class="logo-rect">
			<rect x="13.995" width="960" height="14"/>
		</g>
		<g class="logo-rect">
			<rect x="13.995" y="166" width="960" height="14"/>
		</g>
		<g class="logo-rect">
			<rect x="973.995" y="14.001" width="14" height="151.5"/>
		</g>
	</g>
</svg>
